<?xml version="1.0" encoding="utf-8"?>
<!-- Generator: Adobe Illustrator 23.0.1, SVG Export Plug-In . SVG Version: 6.00 Build 0)  -->
<svg version="1.1" id="레이어_1" xmlns="http://www.w3.org/2000/svg" xmlns:xlink="http://www.w3.org/1999/xlink" x="0px"
	 y="0px" viewBox="0 0 180 60" style="enable-background:new 0 0 180 60;" xml:space="preserve">
<style type="text/css">
	.st0{fill:#684B9E;}
	.st1{fill:#FFFFFF;}
	.st2{fill:none;}
	.st3{font-family:'TmonMonsoriBlack';}
	.st4{font-size:22px;}
	.st5{fill:#FFFFFF;stroke:#000000;stroke-width:0.25;stroke-miterlimit:10;}
</style>
<g>
	<path class="st0" d="M58.3,22.2c0,0-3.2-3.9-8.6-4.6c0,0-1-17.7-18.7-17.7l0,0h0h0h0l0,0C13.2,0,12.2,17.7,12.2,17.7
		c-5.4,0.7-8.6,4.6-8.6,4.6C-2.1,28,0.8,36.7,0.8,36.7C4.3,48.7,13,54,13,54c7,4.7,13.7,5.6,18,5.6l0,0c0,0,0,0,0,0c0,0,0,0,0,0l0,0
		c4.3-0.1,11-1,18-5.6c0,0,8.6-5.3,12.2-17.3C61.2,36.7,64,28,58.3,22.2z"/>
	<path class="st1" d="M56.1,23.6c0,0-2.7-3.1-8.8-3.7c0,0-0.3-17.6-16.3-17.6l0,0c0,0,0,0,0,0l0,0l0,0c-16,0-16.3,17.6-16.3,17.6
		c-6.1,0.6-8.8,3.7-8.8,3.7c-5.2,5.3-2.4,12.8-2.4,12.8c3.3,11.1,11.3,15.8,11.3,15.8c6.4,4.3,12.5,5.2,16.3,5.2l0,0l0,0h0l0,0
		c3.8,0,9.9-0.9,16.3-5.2c0,0,8-4.7,11.3-15.8C58.5,36.4,61.3,28.9,56.1,23.6z"/>
	<path class="st0" d="M56.2,30.3c0,0-1.2-6.5-7.7-6.8H43c0.7-1.6,1-2.9,0.9-5.3c0-7-5.7-12.5-12.9-12.5h-0.1
		c-7.2,0-12.9,5.4-13,12.5c0,2.4,0.3,3.9,1.1,5.4h-5.8c-6.5,0.4-7.5,6.8-7.5,6.8C5.2,35,6.8,38,6.8,38S10.9,49.5,24,53
		c0,0,2.8,0.9,6.9,0.9c4.1,0,6.9-0.9,6.9-0.9C51,49.4,55.1,38,55.1,38S56.8,35,56.2,30.3z M54.7,37.8c0,0-4,11.3-16.9,14.8
		c0,0-2.8,0.9-6.8,0.9c-4,0-6.8-0.9-6.8-0.9C11.3,49,7.3,37.8,7.3,37.8s-1.6-3-1-7.5c0,0,1.2-6.1,7.6-6.3h5.9
		c-0.9-1.8-1.3-3.1-1.3-5.5c0-6.9,5.4-12.4,12.4-12.4H31c7.1,0,12.4,5.5,12.4,12.4c0,2.3-0.4,3.6-1.3,5.5h5.9
		c6.4,0.2,7.6,6.3,7.6,6.3C56.3,34.8,54.7,37.8,54.7,37.8z"/>
	<path class="st0" d="M53.5,27.6c-2.1-2.9-5.7-2.9-5.7-2.9H39l-0.1,0.2c-1.7,2.5-4.6,4.2-7.9,4.3c-3.3-0.1-6.2-1.8-7.9-4.3L23,24.7
		h-8.9c0,0-3.6,0-5.7,2.9c0,0-2.9,3-0.4,9.7c0,0,3.7,10.7,16.3,14.2c0,0,2.7,0.8,6.5,0.9l0,0c0,0,0,0,0.1,0s0,0,0.1,0l0,0
		c3.9,0,6.5-0.9,6.5-0.9C50.1,48,53.8,37.3,53.8,37.3C56.4,30.6,53.5,27.6,53.5,27.6z"/>
	<path class="st1" d="M20.1,39.3c2.5-0.6,4.3-2.5,4.3-4.6c0-2.7-2.7-4.8-6.1-4.8s-6.1,2.2-6.1,4.8c0,2.2,1.8,4,4.3,4.6v2.9h-4v1.5
		h11.7v-1.5h-4C20.1,42.2,20.1,39.3,20.1,39.3z M18.3,38c-1.5,0-2.7-1.6-2.7-3.5s1.2-3.5,2.7-3.5c1.5,0,2.7,1.6,2.7,3.5
		C21,36.5,19.8,38,18.3,38z"/>
	<g>
		<path class="st1" d="M25.4,36.1L25.4,36.1L25.4,36.1c0,0.6,0.5,1,1,1c0,0,0,0,0,0v0h4.2v-1.5h-1.8v-4h1.8v-1.5h-5.2L25.4,36.1
			L25.4,36.1z"/>
		<path class="st1" d="M32.5,37.1L32.5,37.1l4.5,0v-1.5h-2.2v-4h2.2v-1.5l-5.5,0v6l0,0C31.6,36.7,32,37.1,32.5,37.1z"/>
		<path class="st1" d="M37.2,38.2H25.3v1.6h4V43c0,0,0,0.1,0,0.2c0,0.8,0.8,1.4,1.8,1.4c1,0,1.8-0.6,1.8-1.4l0,0v-3.3h4.3V38.2z"/>
	</g>
	<g>
		<path class="st1" d="M46.3,29.8v13c0,0.8,0.8,1.4,1.7,1.4c1,0,1.7-0.6,1.7-1.4v-13H46.3z"/>
		<path class="st1" d="M38.3,31.6h3.3v8.3c0,0,0,1.6-2.4,2h0c-0.6,0.1-0.9,0.4-0.9,0.9s0.3,0.9,0.8,0.9l0,0c0,0,5.7,0.2,5.7-3.5
			V30.1h-6.5V31.6z"/>
	</g>
	<g>
		<path class="st0" d="M40.5,18.7c0,0,0.6-3.6-3.1-7.9c0,0-3.8-5.7-8.7-2.1c0,0-2.3-1.8-4.2,0.1c0,0-1.6,0.9-0.7,3.5
			c0,0-4.6,5.3-1.3,9.9c0,0,1.3,1.3,1.4,2.4c0,0,1.2,2.3,4.9,3.5c0,0,6.1,2.1,10.2-4.6C39,23.6,43.5,22.1,40.5,18.7z M38.9,21.4
			c-0.2-0.3-0.8-0.3-0.8-0.3c-0.8,0-0.7,0.7-0.7,0.7c-0.1,0.9-1.4,2-1.4,2c-0.4,0.1-0.2,0.6-0.2,0.6c0.1,0.5-0.3,0.8-0.3,0.8
			c-1.7,1.8-5.1,1.6-5.1,1.6c-1.9,0.2-4.5-2-4.5-2c-0.6-0.3-0.5-0.8-0.5-0.8c0-0.6-0.4-0.8-0.4-0.8c-2.2-1.7-2.1-4.1-2.1-4.1
			c-0.3-2.9,2.1-5.7,2.1-5.7c2.4,0.3,3.6-0.6,3.6-0.6c3.4,2,3.8-0.4,3.8-0.4c-1.7,0.2-1-0.8-1-0.8c0.4-0.6,1.4-0.4,1.4-0.4
			c5.2,0.9,3.5,4.3,3.5,4.3c1.6,0.9,0.8,1.6,0.8,1.6c-2.1-0.6-0.5,1.6-0.5,1.6c0.7,0,1,1.4,1,1.4c0,1.1,1,0.3,1,0.3
			c0.9-1.1,1,0.3,1,0.3C39.8,22.1,38.9,21.4,38.9,21.4z"/>
		<path class="st0" d="M25,15.1c0,0,1.6-0.9,2.3-0.1c0,0,0.5,0.3,0.4-0.5c0,0-0.8-1.7-2.8,0.2C24.9,14.7,23.9,15.7,25,15.1z"/>
		<path class="st0" d="M34,13l-1.3,0.6c-0.9,0.4-0.3,1-0.3,1c0.7,0.7,1.3,0.1,1.3,0.1c1-1.1,2-0.6,2-0.6C35.3,12.1,34,13,34,13z"/>
		<path class="st0" d="M31.8,19c0.7,0,1.3-0.6,1.3-1.3c0-0.7-0.6-1.3-1.3-1.3c-0.7,0-1.3,0.6-1.3,1.3C30.4,18.5,31,19.1,31.8,19z"/>
		<path class="st0" d="M27.9,17.4c0,0-1.1,0.3,0.2,1c0,0,1.2,0.7,1.2-0.1c0,0-0.8,0.1-0.2-0.9c0,0,0-1.3-0.9-1.4
			C28.1,16,29,17.4,27.9,17.4z"/>
		<path class="st0" d="M26.8,17.2c0,0,1.1-0.3-0.1-0.3c0,0-1.2,0.2-1.7-0.8c0,0-1-0.9-0.4,0.2C24.5,16.3,25,17.8,26.8,17.2z"/>
		<path class="st0" d="M34.3,21.1l-0.8,0.5c0,0-0.7,0.3-0.5-0.5c0,0,0.1-2.1-1.2-1.3c0,0-0.9,1-1.6,1.2c0,0-1.3,0.7-2.6-0.2
			c0,0-1.4-1.5-2.2-1.4c0,0-1.2-0.4-0.1,0.3c0,0,0.8,0,1.2,0.6c0,0,0.7,0.8,1.3,1.1c0,0,0.8,0.9,2.7,0.9c0,0,2.6,0.3,4.1-1
			C34.6,21.4,35.2,20.6,34.3,21.1z M31.3,21.7l-0.6-0.1c0,0,0.9-0.3,1.3-0.7C31.9,20.9,31.7,21.6,31.3,21.7z"/>
		<path class="st0" d="M35.4,20.4c0,0-0.6-0.3-0.1,0.3c0,0,0.3,0.2,0.3,0.5c0,0,0.2-0.2,0.1-0.5C35.6,20.6,35.5,20.4,35.4,20.4z"/>
		<path class="st0" d="M29,24.5c-0.2-0.2-0.6,0.2-0.6,0.2c-0.7,0.2-1.5-0.2-1.5-0.2c-0.5,0-0.7-0.4-0.8-0.5c0-0.3-0.2-0.4-0.2-0.4
			c-0.5-0.6-0.5,0.1-0.5,0.1c0.2,0.2,0.2,0.4,0.2,0.4c0,0.3,0.3,0.5,0.3,0.5c1.6,1.3,1.9,0.8,1.9,0.8c0.1,0,0.5-0.2,0.5-0.2
			c0,0,0.5-0.5,0.5-0.5C29.6,24.4,29,24.5,29,24.5z"/>
	</g>
</g>
<rect x="68" y="19.2" class="st2" width="118.5" height="23.6"/>
<text transform="matrix(1 0 0 1 67.9571 36.8394)"><tspan x="0" y="0" class="st0 st3 st4">오뚜기</tspan><tspan x="59.8" y="0" class="st5 st3 st4">Mall</tspan></text>
</svg>
