<?xml version="1.0" encoding="utf-8"?>
<!-- Generator: Adobe Illustrator 23.0.1, SVG Export Plug-In . SVG Version: 6.00 Build 0)  -->
<svg version="1.1" id="레이어_1" xmlns="http://www.w3.org/2000/svg" xmlns:xlink="http://www.w3.org/1999/xlink" x="0px"
	 y="0px" viewBox="0 0 36 36" style="enable-background:new 0 0 36 36;" xml:space="preserve">
<style type="text/css">
	.st0{fill:none;stroke:#535353;stroke-width:1.7;stroke-linecap:round;}
</style>
<path class="st0" d="M28.9,8.9c-2.5-2.5-6.6-2.5-9.1,0c0,0,0,0,0,0L18,10.7l-1.8-1.8c-2.5-2.5-6.6-2.5-9.1,0S4.5,15.5,7,18l1.8,1.8
	l8.4,8.4c0.4,0.4,1,0.4,1.4,0l8.4-8.4l0,0l1.8-1.8C31.5,15.5,31.5,11.4,28.9,8.9C28.9,8.9,28.9,8.9,28.9,8.9L28.9,8.9z"/>
</svg>
